<?xml version="1.0" encoding="UTF-8"?>
<svg version="1.1" xmlns="http://www.w3.org/2000/svg" width="500" height="500">
<path d="M0 0 C1.27423828 -0.00193359 1.27423828 -0.00193359 2.57421875 -0.00390625 C3.91419922 0.00189453 3.91419922 0.00189453 5.28125 0.0078125 C6.17457031 0.00394531 7.06789062 0.00007812 7.98828125 -0.00390625 C8.83777344 -0.00261719 9.68726563 -0.00132812 10.5625 0 C11.34689453 0.00112793 12.13128906 0.00225586 12.93945312 0.00341797 C14.78125 0.1328125 14.78125 0.1328125 15.78125 1.1328125 C15.91693111 3.49988497 15.99190143 5.8417561 16.02734375 8.2109375 C16.06035489 9.69792094 16.093565 11.18489998 16.12695312 12.671875 C16.17382329 15.00809756 16.21809143 17.34431295 16.25805664 19.68066406 C16.4551935 30.66838786 16.95298856 41.44087512 19.78125 52.1328125 C20.44125 52.1328125 21.10125 52.1328125 21.78125 52.1328125 C21.78125 52.7928125 21.78125 53.4528125 21.78125 54.1328125 C27.73413917 55.22102989 27.73413917 55.22102989 33.59375 54.1953125 C40.5887037 47.60007044 41.06899375 38.08664159 42.47412109 29.08447266 C45.87114684 7.49796724 45.87114684 7.49796724 50.78125 0.1328125 C52.93603516 -0.20776367 52.93603516 -0.20776367 55.5703125 -0.16015625 C56.51132812 -0.15048828 57.45234375 -0.14082031 58.421875 -0.13085938 C59.40671875 -0.10572266 60.3915625 -0.08058594 61.40625 -0.0546875 C62.89511719 -0.03438477 62.89511719 -0.03438477 64.4140625 -0.01367188 C66.87033072 0.02175507 69.32552285 0.07115054 71.78125 0.1328125 C72.36328125 1.97973633 72.36328125 1.97973633 72.78125 4.1328125 C71.46875 6.58203125 71.46875 6.58203125 69.78125 9.1328125 C63.47542247 22.97317659 60.4248848 39.57970419 64.7265625 54.38671875 C71.00524982 70.66556699 82.37784265 81.73021587 98.10546875 88.7578125 C105.71031739 91.60255928 112.1019666 92.43267034 120.15625 92.3203125 C121.05730469 92.31966797 121.95835937 92.31902344 122.88671875 92.31835938 C127.48883134 92.44548074 127.48883134 92.44548074 131.78125 91.1328125 C133.56877492 90.98527076 135.3628784 90.9116603 137.15625 90.8828125 C138.11273438 90.85703125 139.06921875 90.83125 140.0546875 90.8046875 C143.21553645 91.1850762 144.52116733 91.92432989 146.78125 94.1328125 C148.27209832 98.60535747 148.27209832 102.66026753 146.78125 107.1328125 C144.9609375 108.265625 144.9609375 108.265625 142.65625 109.2578125 C141.91117188 109.59039062 141.16609375 109.92296875 140.3984375 110.265625 C123.31113565 115.9273877 102.23770602 112.60563845 86.40625 104.8203125 C80.61671223 101.73964102 74.74136472 98.46434125 69.78125 94.1328125 C69.78125 93.4728125 69.78125 92.8128125 69.78125 92.1328125 C67.80125 91.1428125 67.80125 91.1428125 65.78125 90.1328125 C65.78125 89.4728125 65.78125 88.8128125 65.78125 88.1328125 C65.12125 88.1328125 64.46125 88.1328125 63.78125 88.1328125 C62.39892557 86.50654846 61.06187485 84.8403123 59.78125 83.1328125 C59.25337891 84.29296875 59.25337891 84.29296875 58.71484375 85.4765625 C52.98689866 97.56058243 46.55677968 105.00787801 34.078125 110.2734375 C29.70855927 111.41242383 25.59323475 111.5158232 21.09375 111.5078125 C20.206875 111.50692627 19.32 111.50604004 18.40625 111.50512695 C10.03938905 111.35429683 2.18983053 109.886687 -4.21875 104.1328125 C-4.78051758 101.98803711 -4.78051758 101.98803711 -4.86328125 99.53515625 C-4.90001953 98.65150391 -4.93675781 97.76785156 -4.97460938 96.85742188 C-4.99330078 95.93767578 -5.01199219 95.01792969 -5.03125 94.0703125 C-5.06927734 93.14669922 -5.10730469 92.22308594 -5.14648438 91.27148438 C-5.38046288 84.45623825 -5.38046288 84.45623825 -4.21875 82.1328125 C-0.49655705 82.7222701 2.3453322 83.78791746 5.65625 85.5703125 C11.45711685 88.54820557 17.16315873 91.04117797 23.78125 90.1328125 C30.36352883 87.85024807 34.5942216 85.10568352 38.0390625 79 C38.96593933 77.00305407 38.96593933 77.00305407 38.78125 74.1328125 C37.358125 74.6278125 37.358125 74.6278125 35.90625 75.1328125 C27.44515299 77.49919577 19.90576544 76.03689462 11.78125 73.1328125 C11.78125 72.4728125 11.78125 71.8128125 11.78125 71.1328125 C11.08 70.9678125 10.37875 70.8028125 9.65625 70.6328125 C2.89514961 67.10528186 -0.87055836 59.14536663 -3.21875 52.1328125 C-4.97996226 45.72808541 -5.50397985 39.72508489 -5.44921875 33.1015625 C-5.44876053 32.18443481 -5.44830231 31.26730713 -5.4478302 30.3223877 C-5.44483138 28.40306284 -5.43701715 26.4837399 -5.42456055 24.56445312 C-5.40612747 21.61319481 -5.4040524 18.66224779 -5.40429688 15.7109375 C-5.39938741 13.8411431 -5.39356161 11.97135083 -5.38671875 10.1015625 C-5.38560593 9.21625854 -5.3844931 8.33095459 -5.38334656 7.41882324 C-5.32509916 0.00765729 -5.32509916 0.00765729 0 0 Z " fill="#F8FCFC" transform="translate(245.21875,193.8671875)"/>
<path d="M0 0 C0.78052734 -0.00386719 1.56105469 -0.00773438 2.36523438 -0.01171875 C8.18414502 -0.00167749 8.18414502 -0.00167749 10.4375 1.125 C11.2277832 2.79223633 11.2277832 2.79223633 11.98828125 4.95703125 C12.41379272 6.14546631 12.41379272 6.14546631 12.84790039 7.35791016 C13.14559326 8.2091748 13.44328613 9.06043945 13.75 9.9375 C14.37818722 11.69213115 15.00839282 13.44604102 15.640625 15.19921875 C15.94806641 16.05177246 16.25550781 16.90432617 16.57226562 17.78271484 C17.62922128 20.64401071 18.7933381 23.4488206 20 26.25 C22.03077639 30.99735596 23.75570437 35.80922825 25.4375 40.6875 C27.40334113 46.3786851 29.56173553 51.85543588 32.15380859 57.29736328 C33.46184376 60.17862295 34.60548069 63.08272393 35.72265625 66.04296875 C37.55171794 70.84429806 39.43333906 75.61881125 41.3671875 80.37890625 C41.851875 81.58224609 42.3365625 82.78558594 42.8359375 84.02539062 C43.58241372 85.87677014 44.32917 87.72806751 45.08789062 89.57446289 C45.83715248 91.40090723 46.57116254 93.2335851 47.3046875 95.06640625 C47.95606689 96.67044312 47.95606689 96.67044312 48.62060547 98.30688477 C49.45041374 101.16954971 49.55963859 102.4094246 48.4375 105.125 C46.20514991 107.35735009 41.06056334 106.31031482 38.0625 106.3125 C37.1859375 106.32474609 36.309375 106.33699219 35.40625 106.34960938 C34.56320313 106.35154297 33.72015625 106.35347656 32.8515625 106.35546875 C32.0776416 106.35957764 31.3037207 106.36368652 30.50634766 106.36791992 C28.4375 106.125 28.4375 106.125 25.4375 104.125 C23.1275 98.185 20.8175 92.245 18.4375 86.125 C3.2575 85.795 -11.9225 85.465 -27.5625 85.125 C-28.5525 88.425 -29.5425 91.725 -30.5625 95.125 C-31.9140625 98.25390625 -31.9140625 98.25390625 -33.1875 100.6875 C-33.61289063 101.51378906 -34.03828125 102.34007812 -34.4765625 103.19140625 C-35.5625 105.125 -35.5625 105.125 -36.5625 106.125 C-39.86766934 106.37535974 -43.18646041 106.31021952 -46.5 106.3125 C-47.43263672 106.32474609 -48.36527344 106.33699219 -49.32617188 106.34960938 C-50.66325195 106.35250977 -50.66325195 106.35250977 -52.02734375 106.35546875 C-52.848396 106.35957764 -53.66944824 106.36368652 -54.51538086 106.36791992 C-56.5625 106.125 -56.5625 106.125 -58.5625 104.125 C-58.14317698 99.69791657 -56.37736251 95.57062969 -54.8125 91.4375 C-54.54373047 90.72198975 -54.27496094 90.00647949 -53.99804688 89.26928711 C-52.53946252 85.45602003 -50.97989082 81.79817102 -49.0625 78.1875 C-46.4488039 73.2106218 -44.68832491 68.03040488 -42.86547852 62.72827148 C-39.37879446 52.6114276 -35.37274653 42.77482269 -30.84375 33.078125 C-29.5545109 30.10658611 -28.43296986 27.11024915 -27.33227539 24.06542969 C-23.73255085 14.11452607 -20.81899393 6.78174629 -11.5625 1.125 C-7.69479545 -0.16423485 -4.02812684 -0.02005706 0 0 Z M-4.5625 26.125 C-8.04476294 33.25901655 -10.86268162 40.5169578 -13.41845703 48.02124023 C-14.57418673 51.39955743 -15.78305742 54.69274759 -17.2421875 57.953125 C-18.75464622 61.01398949 -18.75464622 61.01398949 -18.5625 64.125 C-8.9925 64.125 0.5775 64.125 10.4375 64.125 C8.20797538 57.32645077 8.20797538 57.32645077 5.71875 50.66015625 C5.42766357 49.92724365 5.13657715 49.19433105 4.83666992 48.43920898 C4.53994385 47.69614502 4.24321777 46.95308105 3.9375 46.1875 C1.66392724 40.44932249 -0.43097707 34.76889875 -1.95703125 28.77734375 C-2.42839041 26.90624112 -2.42839041 26.90624112 -4.5625 26.125 Z " fill="#F7FBFC" transform="translate(153.5625,168.875)"/>
<path d="M0 0 C9.66988246 9.40644015 15.62790643 20.01644237 15.875 33.8125 C15.74681776 44.40889864 12.3535192 54.31999172 5.3125 62.3125 C3.9821875 63.488125 3.9821875 63.488125 2.625 64.6875 C2.03847656 65.25339844 1.45195312 65.81929688 0.84765625 66.40234375 C-7.95754488 74.64959154 -17.87805292 77.6875 -29.90234375 77.6875 C-43.74350111 76.96613675 -53.51726182 73.47367408 -63.51953125 63.5625 C-71.80953502 54.34750633 -76.2417864 43.24924201 -75.76171875 30.734375 C-74.63086352 21.82460653 -71.62784246 13.9414253 -66.375 6.6875 C-65.715 5.6975 -65.055 4.7075 -64.375 3.6875 C-63.715 3.6875 -63.055 3.6875 -62.375 3.6875 C-62.375 3.0275 -62.375 2.3675 -62.375 1.6875 C-61.715 1.6875 -61.055 1.6875 -60.375 1.6875 C-60.375 1.0275 -60.375 0.3675 -60.375 -0.3125 C-57.9609375 -1.96875 -57.9609375 -1.96875 -54.75 -3.8125 C-53.18378906 -4.72515625 -53.18378906 -4.72515625 -51.5859375 -5.65625 C-35.35629331 -14.0277453 -13.7999789 -11.90788045 0 0 Z M-48.8125 16.8125 C-50.5883948 18.53678992 -50.5883948 18.53678992 -50.375 20.6875 C-51.035 20.6875 -51.695 20.6875 -52.375 20.6875 C-55.88160366 28.16825447 -55.92085616 34.98037262 -53.375 42.6875 C-50.5134498 50.02864972 -44.4507887 54.54735708 -37.375 57.6875 C-29.30611201 59.32862976 -22.79363938 58.41729895 -15.6875 54.125 C-10.47481757 50.40035126 -6.30487343 45.41833362 -4.734375 39.1171875 C-3.63102994 31.65761546 -4.53841491 25.7114928 -8.88671875 19.54296875 C-14.09997842 13.2284812 -18.66722876 9.8104394 -26.875 8.8125 C-35.47550388 8.33077779 -42.36136381 11.18843255 -48.8125 16.8125 Z " fill="#F7FCFC" transform="translate(390.375,201.3125)"/>
<path d="M0 0 C1.2694043 -0.00193359 1.2694043 -0.00193359 2.56445312 -0.00390625 C3.44939453 -0.00003906 4.33433594 0.00382813 5.24609375 0.0078125 C6.13490234 0.00394531 7.02371094 0.00007812 7.93945312 -0.00390625 C8.78443359 -0.00261719 9.62941406 -0.00132812 10.5 0 C11.66704468 0.00169189 11.66704468 0.00169189 12.85766602 0.00341797 C14.68359375 0.1328125 14.68359375 0.1328125 15.68359375 1.1328125 C15.78333385 2.5195883 15.81434037 3.91138777 15.81730652 5.30174255 C15.8215715 6.20054138 15.82583649 7.09934021 15.83023071 8.02537537 C15.82977753 9.01916702 15.82932434 10.01295868 15.82885742 11.03686523 C15.83221603 12.07743073 15.83557465 13.11799622 15.83903503 14.19009399 C15.84857716 17.6488767 15.85048976 21.10761118 15.8515625 24.56640625 C15.85477275 26.95915243 15.85813664 29.35189841 15.86164856 31.74464417 C15.86764796 36.76767431 15.86948762 41.79068723 15.86889648 46.8137207 C15.8687948 53.26491216 15.88244983 59.7159937 15.89966869 66.16715908 C15.91076163 71.11095186 15.91281653 76.05471785 15.91228676 80.9985218 C15.91347086 83.37766969 15.91791653 85.75681819 15.92561913 88.1359539 C15.93536478 91.45717038 15.93256252 94.77814526 15.92651367 98.09936523 C15.93213318 99.09113266 15.93775269 100.08290009 15.94354248 101.10472107 C15.93934799 102.00633972 15.9351535 102.90795837 15.93083191 103.8368988 C15.93137668 104.62281119 15.93192144 105.40872358 15.93248272 106.2184515 C15.68359375 108.1328125 15.68359375 108.1328125 13.68359375 110.1328125 C11.8359375 110.39160156 11.8359375 110.39160156 9.62109375 110.3984375 C8.42613281 110.40230469 8.42613281 110.40230469 7.20703125 110.40625 C6.37429687 110.39851563 5.5415625 110.39078125 4.68359375 110.3828125 C3.43449219 110.39441406 3.43449219 110.39441406 2.16015625 110.40625 C1.36351562 110.40367187 0.566875 110.40109375 -0.25390625 110.3984375 C-0.98480469 110.39618164 -1.71570313 110.39392578 -2.46875 110.39160156 C-4.31640625 110.1328125 -4.31640625 110.1328125 -6.31640625 108.1328125 C-6.56250191 106.21565819 -6.56250191 106.21565819 -6.55691528 103.83016968 C-6.55966461 102.92710587 -6.56241394 102.02404205 -6.56524658 101.09361267 C-6.55805603 100.1002742 -6.55086548 99.10693573 -6.54345703 98.08349609 C-6.54374908 97.03957199 -6.54404114 95.99564789 -6.54434204 94.92008972 C-6.54294467 91.45705965 -6.52736422 87.99424266 -6.51171875 84.53125 C-6.50799007 82.1351432 -6.50514242 79.73903489 -6.50314331 77.34292603 C-6.49549543 71.02669081 -6.47583702 64.71054712 -6.45373535 58.39434814 C-6.43330177 51.95301553 -6.42414692 45.51166817 -6.4140625 39.0703125 C-6.39259223 26.42444005 -6.35882512 13.77863113 -6.31640625 1.1328125 C-3.98476789 -0.03300668 -2.59487143 0.00375641 0 0 Z " fill="#EFF8FC" transform="translate(213.31640625,164.8671875)"/>
<path d="M0 0 C4.36327274 1.94669092 7.3410116 4.0115174 10 8 C10.72193618 13.13685358 11.17221493 18.57876984 8.8671875 23.33984375 C5.8441415 27.08303945 2.83298159 29.22672295 -2 30 C-6.98070299 29.97052838 -11.04261434 29.187894 -15 26 C-19.24871166 21.40679821 -19.41960054 17.55947869 -19.3359375 11.5859375 C-18.99593693 8.9687238 -18.3267414 7.26076735 -17 5 C-16.34 5 -15.68 5 -15 5 C-15 4.34 -15 3.68 -15 3 C-10.01505967 -0.06765559 -5.7259646 -1.05249602 0 0 Z " fill="#F7FCFC" transform="translate(365,220)"/>
<path d="M0 0 C3.14581423 -0.02888514 6.29159469 -0.04675923 9.4375 -0.0625 C10.33533203 -0.07087891 11.23316406 -0.07925781 12.15820312 -0.08789062 C13.01220703 -0.09111328 13.86621094 -0.09433594 14.74609375 -0.09765625 C15.93223267 -0.10551147 15.93223267 -0.10551147 17.14233398 -0.11352539 C19 0 19 0 20 1 C20.13576561 3.34372299 20.21068189 5.6619518 20.24609375 8.0078125 C20.27911938 9.48568106 20.31232911 10.96354552 20.34570312 12.44140625 C20.39246039 14.75988824 20.4366932 17.07836602 20.47680664 19.39697266 C20.66453192 29.74546919 21.38870242 39.7671774 23 50 C22.34 50 21.68 50 21 50 C19.35873957 47.11142741 18.7524995 45.05239087 18.76049805 41.73803711 C18.75676682 40.90715073 18.75303558 40.07626434 18.74919128 39.22019958 C18.75332535 38.33155716 18.75745941 37.44291473 18.76171875 36.52734375 C18.7463075 34.6399667 18.73000449 32.75259676 18.71289062 30.86523438 C18.69639407 27.89363932 18.68753541 24.92256512 18.69458008 21.95092773 C18.69719112 19.07996615 18.66915473 16.2105936 18.63671875 13.33984375 C18.64692551 12.44917709 18.65713226 11.55851044 18.66764832 10.64085388 C18.63062172 8.31685913 18.56860962 6.25396164 18 4 C15.63503871 1.82982733 15.63503871 1.82982733 13 1 C13 1.66 13 2.32 13 3 C8.71 2.34 4.42 1.68 0 1 C0 0.67 0 0.34 0 0 Z " fill="#B4DEEF" transform="translate(241,194)"/>
<path d="M0 0 C0.94082428 0.02009628 1.88164856 0.04019257 2.85098267 0.06089783 C3.86872772 0.08793289 4.88647278 0.11496796 5.93505859 0.14282227 C6.97544281 0.16643326 8.01582703 0.19004425 9.08773804 0.21437073 C12.41979253 0.29111427 15.75162084 0.37509267 19.08349609 0.45922852 C21.33869326 0.51243849 23.59390155 0.56517895 25.84912109 0.61743164 C31.38572023 0.74674384 36.92215056 0.88200084 42.45849609 1.02172852 C42.45849609 1.35172852 42.45849609 1.68172852 42.45849609 2.02172852 C27.27849609 2.02172852 12.09849609 2.02172852 -3.54150391 2.02172852 C-4.53150391 5.32172852 -5.52150391 8.62172852 -6.54150391 12.02172852 C-7.20150391 12.68172852 -7.86150391 13.34172852 -8.54150391 14.02172852 C-8.39919583 12.60470339 -8.25249645 11.18811892 -8.10400391 9.77172852 C-8.02279297 8.98282227 -7.94158203 8.19391602 -7.85791016 7.38110352 C-7.56198397 5.17444407 -7.24723512 3.13424843 -6.54150391 1.02172852 C-4.12358987 -0.1872285 -2.69653666 -0.06488992 0 0 Z " fill="#D9F9FF" transform="translate(129.54150390625,251.978271484375)"/>
<path d="M0 0 C-0.33 0.66 -0.66 1.32 -1 2 C-6.5312648 1.24573662 -6.5312648 1.24573662 -8.93261719 -0.01318359 C-11.20978911 -1.10013788 -12.81969242 -1.30655825 -15.328125 -1.4140625 C-16.52695312 -1.47207031 -16.52695312 -1.47207031 -17.75 -1.53125 C-18.575 -1.5621875 -19.4 -1.593125 -20.25 -1.625 C-21.09046875 -1.66367188 -21.9309375 -1.70234375 -22.796875 -1.7421875 C-24.86423382 -1.83615836 -26.93208627 -1.91915564 -29 -2 C-29.33 -1.01 -29.66 -0.02 -30 1 C-33.63 1 -37.26 1 -41 1 C-32.02277511 -7.97722489 -10.2243303 -4.79917545 0 0 Z " fill="#CEF0FB" transform="translate(381,195)"/>
<path d="M0 0 C-11.19306514 5.8226551 -22.56306213 6.98734574 -35 5 C-36.32 4.34 -37.64 3.68 -39 3 C-31.74 3.33 -24.48 3.66 -17 4 C-17 3.34 -17 2.68 -17 2 C-15.98679687 1.80083984 -15.98679687 1.80083984 -14.953125 1.59765625 C-14.06109375 1.42105469 -13.1690625 1.24445313 -12.25 1.0625 C-11.36828125 0.88847656 -10.4865625 0.71445312 -9.578125 0.53515625 C-7.05696283 0.04812709 -7.05696283 0.04812709 -4.859375 -0.62890625 C-3 -1 -3 -1 0 0 Z " fill="#D0F2FB" transform="translate(385,273)"/>
<path d="M0 0 C1.9375 0.8125 1.9375 0.8125 4 2 C5.49084832 6.47254497 5.49084832 10.52745503 4 15 C-1.12196723 18.28641245 -5.99831493 19.51078171 -12 19 C-8.77208445 16.8480563 -7.71599191 16.79913557 -4 17 C-4 16.34 -4 15.68 -4 15 C-0.535 14.505 -0.535 14.505 3 14 C3 10.37 3 6.74 3 3 C2.01 2.67 1.02 2.34 0 2 C0 1.34 0 0.68 0 0 Z " fill="#C4E9F9" transform="translate(388,286)"/>
<path d="M0 0 C4.34672745 2.17336372 5.47846061 9.61230501 7 14 C7.77589508 16.66246232 8.41496878 19.28758251 9 22 C8.34 22 7.68 22 7 22 C6.67 20.02 6.34 18.04 6 16 C4.68 15.67 3.36 15.34 2 15 C2 12.03 2 9.06 2 6 C1.34 6 0.68 6 0 6 C0 4.02 0 2.04 0 0 Z " fill="#D8F3FC" transform="translate(185,228)"/>
<path d="M0 0 C0.99 0.33 1.98 0.66 3 1 C2.34 1 1.68 1 1 1 C0.63678515 2.66041075 0.31323028 4.32943851 0 6 C-0.226875 7.175625 -0.45375 8.35125 -0.6875 9.5625 C-1.39408694 15.14025447 -0.10054114 20.54277122 1 26 C0.01 25.67 -0.98 25.34 -2 25 C-2.1954384 22.10450497 -2.38161395 19.20891002 -2.5625 16.3125 C-2.61857422 15.49587891 -2.67464844 14.67925781 -2.73242188 13.83789062 C-2.98341571 9.70485877 -3.11127743 6.04175718 -2 2 C-1.34 2 -0.68 2 0 2 C0 1.34 0 0.68 0 0 Z " fill="#C9EAF9" transform="translate(337,221)"/>
<path d="M0 0 C0.66 0 1.32 0 2 0 C2 0.66 2 1.32 2 2 C2.66 2 3.32 2 4 2 C3.67 2.99 3.34 3.98 3 5 C2.34 4.34 1.68 3.68 1 3 C0.38511719 4.24716797 0.38511719 4.24716797 -0.2421875 5.51953125 C-0.78101563 6.60621094 -1.31984375 7.69289063 -1.875 8.8125 C-2.40867187 9.89144531 -2.94234375 10.97039062 -3.4921875 12.08203125 C-5 15 -5 15 -7 18 C-7.66 18 -8.32 18 -9 18 C-9 17.01 -9 16.02 -9 15 C-8.34 14.67 -7.68 14.34 -7 14 C-6.27377059 12.05238476 -5.55077822 10.10339802 -4.85546875 8.14453125 C-3.61615368 5.03775513 -2.04891478 2.64376101 0 0 Z " fill="#CDEEF9" transform="translate(304,274)"/>
<path d="M0 0 C0.33 0 0.66 0 1 0 C1.125 6.75 1.125 6.75 0 9 C3.171738 10.585869 6.63513822 10.37866445 10.125 10.5625 C11.25615234 10.62727539 11.25615234 10.62727539 12.41015625 10.69335938 C14.27321888 10.7994832 16.13658524 10.90025001 18 11 C18 11.33 18 11.66 18 12 C14.87507749 12.05791844 11.75029234 12.09356746 8.625 12.125 C7.73554687 12.14175781 6.84609375 12.15851563 5.9296875 12.17578125 C5.07890625 12.18222656 4.228125 12.18867188 3.3515625 12.1953125 C2.17327881 12.21102295 2.17327881 12.21102295 0.97119141 12.22705078 C-1 12 -1 12 -3 10 C-2.61233695 6.41411676 -1.41433748 3.30012079 0 0 Z " fill="#A2D2F7" transform="translate(98,263)"/>
<path d="M0 0 C0.33 0 0.66 0 1 0 C0.85892253 1.45880109 0.71197585 2.91703551 0.5625 4.375 C0.48128906 5.18710937 0.40007812 5.99921875 0.31640625 6.8359375 C0 9 0 9 -1 11 C-1.99 11.33 -2.98 11.66 -4 12 C-5.20882096 14.00016466 -5.20882096 14.00016466 -6 16 C-8.31 16 -10.62 16 -13 16 C-12.443125 15.608125 -11.88625 15.21625 -11.3125 14.8125 C-5.83843313 10.52201516 -2.78611709 6.27265469 0 0 Z " fill="#BBE4F6" transform="translate(285,268)"/>
<path d="M0 0 C1.32 0.33 2.64 0.66 4 1 C-3.75154991 8.96687074 -3.75154991 8.96687074 -7.796875 9.07421875 C-9.25867188 8.88279297 -9.25867188 8.88279297 -10.75 8.6875 C-11.73484375 8.56761719 -12.7196875 8.44773438 -13.734375 8.32421875 C-14.48203125 8.21722656 -15.2296875 8.11023438 -16 8 C-16 7.01 -16 6.02 -16 5 C-15.40832031 5.10699219 -14.81664062 5.21398437 -14.20703125 5.32421875 C-9.03171689 6.12464288 -9.03171689 6.12464288 -4.0625 4.75 C-1.7918558 2.98631509 -1.7918558 2.98631509 0 0 Z " fill="#CFEBF7" transform="translate(283,243)"/>
<path d="M0 0 C0.33 0 0.66 0 1 0 C0.65145339 7.20329664 -0.94859474 12.95019268 -5 19 C-7.16796875 20.7890625 -7.16796875 20.7890625 -9 22 C-8.67 20.35 -8.34 18.7 -8 17 C-7.01 16.67 -6.02 16.34 -5 16 C-4.33129693 14.22300202 -4.33129693 14.22300202 -4 12 C-3.50617932 10.10254772 -3.00581824 8.2067893 -2.5 6.3125 C-2.2421875 5.33925781 -1.984375 4.36601562 -1.71875 3.36328125 C-1 1 -1 1 0 0 Z " fill="#D0EEFC" transform="translate(404,241)"/>
<path d="M0 0 C3.14581423 -0.02888514 6.29159469 -0.04675923 9.4375 -0.0625 C10.33533203 -0.07087891 11.23316406 -0.07925781 12.15820312 -0.08789062 C13.01220703 -0.09111328 13.86621094 -0.09433594 14.74609375 -0.09765625 C15.93223267 -0.10551147 15.93223267 -0.10551147 17.14233398 -0.11352539 C19 0 19 0 20 1 C20.04080783 2.99958364 20.04254356 5.00045254 20 7 C19.21625 6.195625 18.4325 5.39125 17.625 4.5625 C15.28017144 2.01309583 15.28017144 2.01309583 13 1 C13 1.66 13 2.32 13 3 C8.71 2.34 4.42 1.68 0 1 C0 0.67 0 0.34 0 0 Z " fill="#CDEEF6" transform="translate(241,194)"/>
<path d="M0 0 C3.68754757 0.49831724 5.60490662 1.10067643 8 4 C5.69 3.67 3.38 3.34 1 3 C1 9.27 1 15.54 1 22 C0.67 22 0.34 22 0 22 C-0.1964031 18.70880065 -0.38060745 15.41703066 -0.5625 12.125 C-0.61857422 11.18785156 -0.67464844 10.25070312 -0.73242188 9.28515625 C-0.78076172 8.38925781 -0.82910156 7.49335938 -0.87890625 6.5703125 C-0.9260376 5.74289551 -0.97316895 4.91547852 -1.02172852 4.06298828 C-1 2 -1 2 0 0 Z " fill="#C7EDF7" transform="translate(241,276)"/>
<path d="M0 0 C-2.95324082 2.83018912 -5.77659482 3.67840136 -9.828125 4.08203125 C-13.60007551 3.93956549 -16.57537606 2.52884997 -20 1 C-17.50565062 -0.24717469 -16.41004318 0.12780823 -13.6875 0.5625 C-8.59880534 1.22305171 -4.75589753 -1.76144353 0 0 Z " fill="#C8EDF9" transform="translate(371,246)"/>
<path d="M0 0 C0.33 0 0.66 0 1 0 C0.88487847 1.72985242 0.75744323 3.45888751 0.625 5.1875 C0.55539062 6.15042969 0.48578125 7.11335937 0.4140625 8.10546875 C-0.00451085 11.03153338 -0.87113239 13.28366231 -2 16 C-2.43888925 18.20254027 -2.43888925 18.20254027 -2.625 20.3125 C-2.74875 21.529375 -2.8725 22.74625 -3 24 C-3.33 24 -3.66 24 -4 24 C-4.62867565 15.28585694 -2.91691481 8.19080097 0 0 Z " fill="#B4E2F6" transform="translate(319,216)"/>
<path d="M0 0 C0.99 0.33 1.98 0.66 3 1 C2.5359375 2.175625 2.5359375 2.175625 2.0625 3.375 C0.73664193 7.89851578 0.35188915 12.31431814 0 17 C-2 15 -2 15 -2.265625 12.5390625 C-2.26046875 11.57742187 -2.2553125 10.61578125 -2.25 9.625 C-2.25515625 8.66851562 -2.2603125 7.71203125 -2.265625 6.7265625 C-1.99896864 3.98941342 -1.39742087 2.34012543 0 0 Z " fill="#CEEFFB" transform="translate(348,225)"/>
<path d="M0 0 C2.31 0.66 4.62 1.32 7 2 C7 2.99 7 3.98 7 5 C7.66 5 8.32 5 9 5 C9 5.99 9 6.98 9 8 C9.99 8 10.98 8 12 8 C12 8.66 12 9.32 12 10 C12.66 10 13.32 10 14 10 C13.67 10.66 13.34 11.32 13 12 C11.49460339 11.05016642 9.99579653 10.08988109 8.5 9.125 C7.6646875 8.59132813 6.829375 8.05765625 5.96875 7.5078125 C4.99421875 6.76144531 4.99421875 6.76144531 4 6 C4 5.34 4 4.68 4 4 C2.68 3.34 1.36 2.68 0 2 C0 1.34 0 0.68 0 0 Z " fill="#CEF1FC" transform="translate(311,282)"/>
<path d="M0 0 C3.72225226 3.72225226 4.59834849 8.00661651 6 13 C6.391875 13.9075 6.78375 14.815 7.1875 15.75 C8 18 8 18 7 21 C3.08916501 13.93179365 0.27123187 8.13695602 0 0 Z " fill="#BEE6F4" transform="translate(241,237)"/>
<path d="M0 0 C3.96 0 7.92 0 12 0 C12.33 1.32 12.66 2.64 13 4 C11.5625 6.25 11.5625 6.25 10 8 C9.67 6.35 9.34 4.7 9 3 C6.03 2.67 3.06 2.34 0 2 C0 1.34 0 0.68 0 0 Z " fill="#BBE2F2" transform="translate(305,194)"/>
<path d="M0 0 C2.35500948 0.11517421 4.70849073 0.24187978 7.0625 0.375 C8.37347656 0.44460938 9.68445313 0.51421875 11.03515625 0.5859375 C14.98136957 0.99805436 18.24117073 1.79756567 22 3 C22 3.33 22 3.66 22 4 C14.25847464 4.39363688 7.47941368 2.94210433 0 1 C0 0.67 0 0.34 0 0 Z " fill="#C0E7F6" transform="translate(342,302)"/>
<path d="M0 0 C-2.70620189 2.70620189 -5.10279664 3.93974189 -8.99853516 4.06347656 C-11.27750954 3.97378887 -13.53977919 3.81550468 -15.8125 3.625 C-16.99489258 3.53992188 -16.99489258 3.53992188 -18.20117188 3.453125 C-20.13489961 3.31249026 -22.06758595 3.15766112 -24 3 C-24 2.67 -24 2.34 -24 2 C-22.86820312 1.93941406 -21.73640625 1.87882812 -20.5703125 1.81640625 C-19.08852855 1.73200083 -17.6067584 1.64735283 -16.125 1.5625 C-15.37863281 1.52318359 -14.63226563 1.48386719 -13.86328125 1.44335938 C-8.97722027 1.15723869 -4.91301013 -0.10680457 0 0 Z " fill="#ABDCED" transform="translate(383,285)"/>
<path d="M0 0 C4.15153964 3.41019328 6.53086442 7.88055823 8 13 C7.60546875 15.28125 7.60546875 15.28125 7 17 C4.59185923 13.48812804 3.63370592 11.27343092 4 7 C3.01 6.67 2.02 6.34 1 6 C0.67 4.02 0.34 2.04 0 0 Z " fill="#CAF2F9" transform="translate(396,208)"/>
<path d="M0 0 C0.66 0 1.32 0 2 0 C1.67858177 2.89276411 1.16303473 4.75718232 -0.46875 7.1875 C-4.31171394 9.93925196 -7.69225477 9.19865305 -12.25 8.75 C-13.09046875 8.68425781 -13.9309375 8.61851562 -14.796875 8.55078125 C-16.86618164 8.38617731 -18.93339331 8.19560475 -21 8 C-21 7.67 -21 7.34 -21 7 C-11.1 6.505 -11.1 6.505 -1 6 C-0.67 4.02 -0.34 2.04 0 0 Z " fill="#D4F4FC" transform="translate(119,266)"/>
<path d="M0 0 C0.33 0.66 0.66 1.32 1 2 C-2.16952847 5.26008643 -5.39937989 8.22237877 -9 11 C-9.66 10.67 -10.32 10.34 -11 10 C-10.34 9.01 -9.68 8.02 -9 7 C-8.34 7 -7.68 7 -7 7 C-7 6.34 -7 5.68 -7 5 C-6.34 5 -5.68 5 -5 5 C-5 4.34 -5 3.68 -5 3 C-2.5 1.375 -2.5 1.375 0 0 Z " fill="#CCEAF9" transform="translate(335,198)"/>
<path d="M0 0 C-0.99 0 -1.98 0 -3 0 C-3.103125 0.845625 -3.20625 1.69125 -3.3125 2.5625 C-4.0828854 6.41442701 -5.36274514 9.44075031 -7 13 C-7.33 13 -7.66 13 -8 13 C-7.85769192 11.58297487 -7.71099254 10.1663904 -7.5625 8.75 C-7.48128906 7.96109375 -7.40007812 7.1721875 -7.31640625 6.359375 C-7.02048007 4.15271556 -6.70573121 2.11251991 -6 0 C-3.50907189 -1.24546405 -2.58919267 -0.7767578 0 0 Z " fill="#D1EFF9" transform="translate(129,253)"/>
<path d="M0 0 C0.66 0 1.32 0 2 0 C2.32712342 6.13053511 2.39366878 10.62669111 -1 16 C-1.66 15.67 -2.32 15.34 -3 15 C-2.690625 14.195625 -2.38125 13.39125 -2.0625 12.5625 C-0.81434483 8.37750913 -0.3662304 4.33693899 0 0 Z " fill="#BFE4F7" transform="translate(287,226)"/>
<path d="M0 0 C0.91848627 3.09989115 1.39332557 5.77473037 1 9 C-0.875 11.8125 -0.875 11.8125 -3 14 C-3.66 14 -4.32 14 -5 14 C-4.54636829 12.41531323 -4.08688548 10.83230076 -3.625 9.25 C-3.36976562 8.36828125 -3.11453125 7.4865625 -2.8515625 6.578125 C-2.0790066 4.23919428 -1.16374324 2.16557438 0 0 Z " fill="#CDEEFB" transform="translate(115,221)"/>
<path d="M0 0 C0.99 0.33 1.98 0.66 3 1 C2 3 2 3 0.4375 3.625 C-3.61010348 4.24770823 -8.27713048 4.86143476 -12 3 C-12 2.34 -12 1.68 -12 1 C-10.95199219 1.01740234 -10.95199219 1.01740234 -9.8828125 1.03515625 C-8.97273438 1.04417969 -8.06265625 1.05320312 -7.125 1.0625 C-5.76761719 1.07990234 -5.76761719 1.07990234 -4.3828125 1.09765625 C-1.9831415 1.16249257 -1.9831415 1.16249257 0 0 Z " fill="#DBF7FD" transform="translate(271,283)"/>
<path d="M0 0 C0.66 0.33 1.32 0.66 2 1 C2.10832169 3.08218362 2.18573541 5.16599129 2.25 7.25 C2.29640625 8.41015625 2.3428125 9.5703125 2.390625 10.765625 C1.93035506 14.57666013 0.94851556 15.65511755 -2 18 C-2 16.68 -2 15.36 -2 14 C-1.34 14 -0.68 14 0 14 C0 9.38 0 4.76 0 0 Z " fill="#D1F4FC" transform="translate(373,227)"/>
<path d="M0 0 C3.2578125 0.4609375 3.2578125 0.4609375 7.125 1.375 C8.40632813 1.67148437 9.68765625 1.96796875 11.0078125 2.2734375 C12.48894531 2.63308594 12.48894531 2.63308594 14 3 C14 3.33 14 3.66 14 4 C8.26157749 4.20413361 3.39460953 4.27141454 -2 2 C-1.34 1.34 -0.68 0.68 0 0 Z " fill="#C3E4F6" transform="translate(263,266)"/>
<path d="M0 0 C0.99 0.33 1.98 0.66 3 1 C2.71788123 2.6266848 2.42397625 4.25132896 2.125 5.875 C1.96257812 6.77992188 1.80015625 7.68484375 1.6328125 8.6171875 C1 11 1 11 -1 13 C-0.67 8.71 -0.34 4.42 0 0 Z " fill="#D2F3FB" transform="translate(309,208)"/>
<path d="M0 0 C0.33 0 0.66 0 1 0 C0.85892253 1.45880109 0.71197585 2.91703551 0.5625 4.375 C0.48128906 5.18710937 0.40007812 5.99921875 0.31640625 6.8359375 C0 9 0 9 -1 11 C-1.66 11 -2.32 11 -3 11 C-2.53199289 6.94393835 -2.12046792 3.53411321 0 0 Z " fill="#CCECF5" transform="translate(285,268)"/>
<path d="M0 0 C1.32 0 2.64 0 4 0 C4 0.99 4 1.98 4 3 C4.9590625 3.1546875 4.9590625 3.1546875 5.9375 3.3125 C6.618125 3.539375 7.29875 3.76625 8 4 C8.33 4.99 8.66 5.98 9 7 C4.58110387 5.64978174 2.65654657 3.73884332 0 0 Z " fill="#C4ECF9" transform="translate(327,264)"/>
<path d="M0 0 C0.33 0.66 0.66 1.32 1 2 C-0.65 3.98 -2.3 5.96 -4 8 C-4.99 7.67 -5.98 7.34 -7 7 C-4.66666667 4.66666667 -2.33333333 2.33333333 0 0 Z " fill="#CBEAF6" transform="translate(380,250)"/>
<path d="M0 0 C-2.6855594 2.6855594 -5.37621328 3.06049974 -9 4 C-6.73455663 -1.01633889 -5.27613404 -1.24961069 0 0 Z " fill="#DAF5FC" transform="translate(147,171)"/>
<path d="M0 0 C1.98 0 3.96 0 6 0 C6.33 0.99 6.66 1.98 7 3 C9.01508358 3.73323796 9.01508358 3.73323796 11 4 C10.01 4.495 10.01 4.495 9 5 C6.8359375 4.22265625 6.8359375 4.22265625 4.375 3.0625 C3.55773437 2.68222656 2.74046875 2.30195313 1.8984375 1.91015625 C1.27195312 1.60980469 0.64546875 1.30945313 0 1 C0 0.67 0 0.34 0 0 Z " fill="#C5E5F6" transform="translate(330,297)"/>
<path d="M0 0 C2.34914492 2.34914492 2.73140357 3.95679446 3.625 7.125 C3.88539063 8.03507813 4.14578125 8.94515625 4.4140625 9.8828125 C4.70410156 10.93082031 4.70410156 10.93082031 5 12 C2.69857565 10.21825212 1.19965609 8.83695835 0.51171875 5.953125 C0.27676898 3.9753389 0.13248542 1.98728128 0 0 Z " fill="#D3F2FB" transform="translate(308,245)"/>
<path d="M0 0 C2.97 0 5.94 0 9 0 C9.66 1.32 10.32 2.64 11 4 C7.37 3.01 3.74 2.02 0 1 C0 0.67 0 0.34 0 0 Z " fill="#C0E6F7" transform="translate(364,210)"/>
<path d="M0 0 C2.22825644 2.22825644 2.69239369 3.65761628 3.625 6.625 C4.01558594 7.85089844 4.01558594 7.85089844 4.4140625 9.1015625 C4.60742188 9.72804687 4.80078125 10.35453125 5 11 C4.34 11 3.68 11 3 11 C0 4.5 0 4.5 0 0 Z " fill="#C5EAF9" transform="translate(168,184)"/>
<path d="M0 0 C2.5654594 2.5654594 2.54046087 4.47686668 3 8 C1.68 8.33 0.36 8.66 -1 9 C-1.33 8.34 -1.66 7.68 -2 7 C-1.01 7 -0.02 7 1 7 C0.67 4.69 0.34 2.38 0 0 Z " fill="#C2E9FA" transform="translate(200,265)"/>
<path d="M0 0 C2.97903734 2.97903734 4 5.80285329 4 10 C3.01 9.67 2.02 9.34 1 9 C0.67 6.03 0.34 3.06 0 0 Z " fill="#C2E4F7" transform="translate(176,204)"/>
<path d="M0 0 C2.31 1.98 4.62 3.96 7 6 C3 7 3 7 1 6 C0.375 2.9375 0.375 2.9375 0 0 Z " fill="#D0F1F9" transform="translate(178,267)"/>
<path d="M0 0 C3.875 0.875 3.875 0.875 5 2 C5.04063832 3.66617115 5.042721 5.33388095 5 7 C4.01 5.68 3.02 4.36 2 3 C1.34 3.99 0.68 4.98 0 6 C0 4.02 0 2.04 0 0 Z " fill="#BFE1F0" transform="translate(147,193)"/>
<path d="M0 0 C0.99 0.33 1.98 0.66 3 1 C3.33 3.97 3.66 6.94 4 10 C1.81024227 6.71536341 1.00193437 3.79303725 0 0 Z " fill="#C8E9FD" transform="translate(153,204)"/>
<path d="M0 0 C0.33 0 0.66 0 1 0 C0.125 6.75 0.125 6.75 -1 9 C-1.66 9 -2.32 9 -3 9 C-2.01 6.03 -1.02 3.06 0 0 Z " fill="#C4EDFC" transform="translate(131,181)"/>
<path d="M0 0 C2.97903734 2.97903734 4 5.80285329 4 10 C3.01 9.67 2.02 9.34 1 9 C0.67 6.03 0.34 3.06 0 0 Z " fill="#C8E3FA" transform="translate(164,173)"/>
</svg>
